<?xml version="1.0" encoding="UTF-8" standalone="no"?>
<svg width="43px" height="40px" viewBox="0 0 43 40" version="1.1" xmlns="http://www.w3.org/2000/svg" xmlns:xlink="http://www.w3.org/1999/xlink">
    <!-- Generator: Sketch 46.2 (44496) - http://www.bohemiancoding.com/sketch -->
    <title>Fill 1</title>
    <desc>Created with Sketch.</desc>
    <defs></defs>
    <g id="Page-1" stroke="none" stroke-width="1" fill="none" fill-rule="evenodd">
        <g id="mainpage-box" transform="translate(-34.000000, -179.000000)" fill="#254983">
            <path d="M52.3381902,210.363636 L52.3381902,215.406364 C50.0466443,214.045 48.3360474,212.331818 47.0966597,210.363636 L52.3381902,210.363636 Z M44.0915812,210.363636 C44.9789058,212.100909 46.1313975,213.701818 47.5857856,215.122273 C44.9744266,214.106364 42.6824328,212.464545 40.8768773,210.363636 L44.0915812,210.363636 Z M65.9521947,202.409091 L60.3890593,203.943182 L60.3890593,209.909091 L62.6255114,209.909091 L65.9521947,202.409091 Z M70.5366302,193.175909 C65.6404441,194.530909 54.8057677,199.489091 46.943024,202.650455 L44.2729878,199.951818 L42.0508691,201.301364 L45.167479,206.727273 L75.917911,198.119545 C76.8921316,197.695909 77.2571844,196.778182 76.8124023,195.875 C75.6437855,194.294091 73.8471885,193.072273 71.5287675,193.090909 C71.1977565,193.093636 70.8703288,193.119545 70.5366302,193.175909 Z M42.8893706,190.363636 C42.1341817,192.635 41.7467331,195.086364 41.6455038,197.636364 L36.7394634,197.636364 C36.9405784,194.996818 37.7280173,192.535 38.9615821,190.363636 L42.8893706,190.363636 Z M56.3631769,188.090909 L53.2326815,189.454545 L58.7120562,196.215909 C60.6004764,195.420909 62.4248444,194.670455 64.1211079,194 L56.3631769,188.090909 Z M66.4829769,187.636364 L63.3520336,187.636364 C62.475459,185.902727 61.3296861,184.311818 59.886048,182.906364 C62.4508236,183.925909 64.7034007,185.565 66.4829769,187.636364 Z M44.0078206,187.636364 L40.8768773,187.636364 C42.6564535,185.565 44.9090306,183.925909 47.4738062,182.906364 C46.0297202,184.311818 44.8848431,185.902727 44.0078206,187.636364 Z M52.3381902,187.636364 L46.9846803,187.636364 C48.2316826,185.646818 49.9700504,183.943182 52.3381902,182.565455 L52.3381902,187.636364 Z M34,199 C34,210.029545 42.8266622,219 53.6797032,219 C64.0758683,219 72.6033216,210.765 73.3038645,200.377727 L70.5366302,201.145 C70.249963,203.485909 69.50642,205.685455 68.3982721,207.636364 L65.1132452,207.636364 L63.8975971,210.363636 L66.4829769,210.363636 C64.6774215,212.464091 62.3854276,214.106364 59.7740686,215.122273 C60.9700083,213.954091 61.9572185,212.660455 62.7648137,211.272727 L60.3890593,211.272727 C60.1664443,211.277273 59.9433814,211.221818 59.7458498,211.116364 C58.5597643,212.768182 57.014001,214.222727 55.021664,215.406364 L55.021664,210.363636 L59.1308591,210.363636 C59.0780048,210.218636 59.049786,210.064091 59.0470985,209.909091 L59.0470985,207.636364 L55.021664,207.636364 L55.021664,205.420455 L52.3381902,206.159091 L52.3381902,207.636364 L46.9569094,207.636364 L45.5173026,208.034091 C44.8275097,208.172273 44.396613,207.922273 44.0078206,207.409091 L42.0226503,203.957273 C42.2367549,205.213182 42.5390992,206.444545 42.9453603,207.636364 L38.96203,207.636364 C37.7302569,205.469091 36.94237,202.997727 36.7394634,200.363636 L41.0865027,200.363636 C41.8080978,199.738182 42.757235,199.282727 43.5881219,198.772727 C44.1636959,198.448182 44.7003011,198.593636 45.1956978,198.957273 C45.6543654,199.423636 46.1188558,199.895455 46.579315,200.363636 L48.8856422,200.363636 C50.9962294,199.448636 52.8322432,198.652727 55.021664,197.636364 L55.021664,193.800909 L52.3381902,190.491364 L52.3381902,197.636364 L44.315092,197.636364 C44.4136339,194.979545 44.8055617,192.542727 45.6288341,190.363636 L52.2262109,190.363636 C51.5691159,189.548182 52.0340543,188.512727 52.7014513,188.190455 L55.021664,187.181818 L55.021664,182.565455 C57.3898038,183.943182 59.1281716,185.646818 60.3751739,187.636364 L58.012857,187.636364 C60.5032783,189.442273 62.7451054,191.239091 65.1831203,193.105 C64.9954429,192.168182 64.7652133,191.250455 64.4704836,190.363636 L68.3982721,190.363636 C68.7216685,190.933636 69.0186378,191.516818 69.27843,192.125 C70.1791921,191.774545 71.0763708,191.707727 72.004008,191.727273 C69.1364401,184.282727 62.0105207,179 53.6797032,179 C42.8266622,179 34,187.970455 34,199 Z" id="Fill-1"></path>
        </g>
    </g>
</svg>