<?xml version="1.0" encoding="UTF-8" standalone="no"?>
<svg width="36px" height="36px" viewBox="0 0 36 36" version="1.1" xmlns="http://www.w3.org/2000/svg" xmlns:xlink="http://www.w3.org/1999/xlink">
    <!-- Generator: Sketch 46.2 (44496) - http://www.bohemiancoding.com/sketch -->
    <title>Fill 1</title>
    <desc>Created with Sketch.</desc>
    <defs></defs>
    <g id="Page-1" stroke="none" stroke-width="1" fill="none" fill-rule="evenodd">
        <g id="mainpage-box" transform="translate(-305.000000, -182.000000)" fill="#4D4D4D">
            <path d="M326.94884,187.98788 L326.94884,183.70064 C326.94884,182.7614 327.70988,182 328.64912,182 C329.58764,182 330.34904,182.7614 330.34904,183.70064 L330.34904,187.98824 C330.34904,188.92748 329.588,189.68852 328.64912,189.68852 C327.70952,189.68852 326.94884,188.92712 326.94884,187.98788 L326.94884,187.98788 Z M307.8908,187.98788 L307.8908,183.70064 C307.8908,182.7614 308.6522,182 309.59108,182 C310.53032,182 311.29136,182.7614 311.29136,183.70064 L311.29136,187.98824 C311.29136,188.92748 310.53032,189.68852 309.59108,189.68852 C308.6522,189.68816 307.8908,188.92712 307.8908,187.98788 L307.8908,187.98788 Z M327.48704,195.78008 L331.72532,195.78008 L331.72532,192.02744 L327.48704,192.02744 L327.48704,195.78008 Z M322.1252,195.78008 L326.59604,195.78008 L326.59604,192.02744 L322.1252,192.02744 L322.1252,195.78008 Z M316.76264,195.78008 L321.2342,195.78008 L321.2342,192.02744 L316.76264,192.02744 L316.76264,195.78008 Z M316.76264,200.41724 L321.2342,200.41724 L321.2342,196.67072 L316.76264,196.67072 L316.76264,200.41724 Z M316.76264,205.05404 L321.2342,205.05404 L321.2342,201.30788 L316.76264,201.30788 L316.76264,205.05404 Z M315.87236,195.78008 L311.4008,195.78008 L311.4008,192.02744 L315.872,192.02744 L315.872,195.78008 L315.87236,195.78008 Z M315.87236,200.41724 L311.4008,200.41724 L311.4008,196.67072 L315.872,196.67072 L315.872,200.41724 L315.87236,200.41724 Z M315.87236,205.05404 L311.4008,205.05404 L311.4008,201.30788 L315.872,201.30788 L315.872,205.05404 L315.87236,205.05404 Z M315.87236,209.22032 L311.4008,209.22032 L311.4008,205.94468 L315.872,205.94468 L315.872,209.22032 L315.87236,209.22032 Z M306.51452,195.78008 L310.5098,195.78008 L310.5098,192.02744 L306.51452,192.02744 L306.51452,195.78008 Z M306.51452,200.41724 L310.5098,200.41724 L310.5098,196.67072 L306.51452,196.67072 L306.51452,200.41724 Z M306.51452,205.05404 L310.5098,205.05404 L310.5098,201.30788 L306.51452,201.30788 L306.51452,205.05404 Z M306.51452,209.22032 L310.5098,209.22032 L310.5098,205.94432 L306.51452,205.94432 L306.51452,209.22032 Z M331.0496,186.68072 L331.0496,188.01164 C331.0496,189.33752 329.975,190.41212 328.64912,190.41212 C327.32288,190.41212 326.24864,189.33716 326.24864,188.01164 L326.24864,186.68072 L311.99156,186.68072 L311.99156,188.01164 C311.99156,189.33752 310.91696,190.41212 309.59108,190.41212 C308.2652,190.41212 307.1906,189.33716 307.1906,188.01164 L307.1906,186.68072 L305,186.68072 L305,210.7352 L321.44264,210.7352 C321.35768,210.242 321.30692,209.73728 321.29216,209.22356 L316.76264,209.22356 L316.76264,209.22032 L316.76264,205.94468 L321.2342,205.94468 L321.70832,205.94468 C321.82496,205.54364 321.96392,205.15196 322.12484,204.7718 L322.12484,201.30752 L324.49328,201.30752 C324.81836,200.98928 325.16432,200.69156 325.52936,200.41688 L322.12484,200.41688 L322.12484,196.67072 L326.59604,196.67072 L326.59604,199.70984 C326.8844,199.54244 327.1814,199.38836 327.48668,199.24832 L327.48668,196.67072 L331.72532,196.67072 L331.72532,198.28424 C331.79048,198.28316 331.85564,198.28172 331.92152,198.28172 C332.36792,198.28172 332.80784,198.3098 333.2402,198.36308 L333.2402,186.68072 L331.0496,186.68072 Z M331.83836,213.19472 C329.43212,213.19472 327.48164,211.24424 327.48164,208.83764 C327.48164,206.4314 329.43212,204.48128 331.83836,204.48128 C334.2446,204.48128 336.19472,206.4314 336.19472,208.83764 C336.19472,211.24424 334.24424,213.19472 331.83836,213.19472 L331.83836,213.19472 Z M339.81704,208.08092 C340.2224,207.92972 340.60688,207.76196 341,207.57548 C340.90928,206.8112 340.68788,206.06672 340.40852,205.35068 C339.98444,205.38128 339.54812,205.43672 339.12584,205.50476 C338.91416,205.0436 338.66036,204.60404 338.36732,204.1922 C338.63516,203.86172 338.89292,203.5172 339.13844,203.16008 C338.6708,202.55204 338.12432,202.0052 337.51628,201.53756 C337.15952,201.78344 336.815,202.04012 336.48596,202.3076 C336.07664,202.01564 335.63744,201.76004 335.17124,201.54728 C335.23892,201.12572 335.29544,200.69012 335.32568,200.26784 C334.60964,199.98884 333.86408,199.76744 333.10052,199.67636 C332.91404,200.06912 332.74628,200.45396 332.59436,200.86076 C332.08352,200.8118 331.577,200.81216 331.08128,200.85932 C330.929,200.45288 330.76124,200.0684 330.57512,199.67636 C329.81192,199.76708 329.06636,199.98848 328.35068,200.26676 C328.38092,200.69048 328.43672,201.12716 328.50512,201.55016 C328.04396,201.76148 327.6044,202.01564 327.19292,202.30868 C326.86208,202.04084 326.51792,201.78344 326.16044,201.5372 C325.5524,202.00484 325.00628,202.55132 324.53792,203.15972 C324.78308,203.51612 325.04012,203.86028 325.3076,204.19004 C325.016,204.59936 324.7604,205.0382 324.54764,205.50404 C324.12572,205.43636 323.69048,205.38092 323.26748,205.35032 C322.9892,206.066 322.76672,206.81084 322.67672,207.57512 C323.0702,207.76232 323.45432,207.92972 323.86148,208.08128 C323.81216,208.59248 323.81288,209.09864 323.85968,209.59508 C323.4536,209.74664 323.06984,209.91332 322.67672,210.10016 C322.76672,210.86408 322.9892,211.60856 323.26748,212.32532 C323.6912,212.29544 324.12788,212.23892 324.55016,212.17016 C324.76184,212.63168 325.01564,213.07124 325.30904,213.48308 C325.04084,213.8132 324.78344,214.15736 324.5372,214.51556 C325.00592,215.12324 325.55168,215.67008 326.16008,216.1388 C326.51648,215.8922 326.86028,215.63588 327.19004,215.36804 C327.59972,215.65964 328.03784,215.91524 328.50404,216.128 C328.43636,216.5492 328.38056,216.98516 328.35032,217.40924 C329.06564,217.68644 329.81156,217.90892 330.57476,217.99928 C330.76196,217.60616 330.92936,217.22096 331.08164,216.81452 C331.59248,216.86384 332.09864,216.86312 332.59472,216.81668 C332.74664,217.22204 332.9144,217.60688 333.10016,217.99928 C333.86372,217.90892 334.60892,217.6868 335.32532,217.40924 C335.29508,216.98444 335.23856,216.54776 335.17016,216.12548 C335.63168,215.91416 336.0716,215.66 336.48416,215.3666 C336.81356,215.6348 337.15844,215.8922 337.51592,216.13916 C338.1236,215.67044 338.67044,215.12396 339.13808,214.51592 C338.89328,214.15844 338.63552,213.815 338.3684,213.48596 C338.66,213.07628 338.9156,212.63744 339.12836,212.17124 C339.54992,212.23964 339.98552,212.29544 340.40816,212.32568 C340.68716,211.60928 340.90892,210.86444 340.99964,210.10052 C340.60652,209.91296 340.22096,209.74664 339.81488,209.59472 C339.86456,209.08352 339.86384,208.57736 339.81704,208.08092 L339.81704,208.08092 Z" id="Fill-1"></path>
        </g>
    </g>
</svg>