<?xml version="1.0" encoding="UTF-8" standalone="no"?>
<svg width="18px" height="18px" viewBox="0 0 18 18" version="1.1" xmlns="http://www.w3.org/2000/svg" xmlns:xlink="http://www.w3.org/1999/xlink">
    <!-- Generator: Sketch 46.2 (44496) - http://www.bohemiancoding.com/sketch -->
    <title>box</title>
    <desc>Created with Sketch.</desc>
    <defs></defs>
    <g id="Symbols" stroke="none" stroke-width="1" fill="none" fill-rule="evenodd">
        <g id="Tool-Bars/box" transform="translate(-223.000000, -7.000000)" fill="#3377DA">
            <g id="box" transform="translate(223.000000, 7.000000)">
                <polygon id="Fill-1" points="11.0216118 7.91208791e-05 9.27518824 2.84170549 16.0639412 5.79805714 17.811 2.95662857 11.0220353 7.91208791e-05"></polygon>
                <polygon id="Fill-2" points="9.27516706 9.39661319 11.0218024 12.2380418 15.7674494 10.1714044 16.5494965 9.83078901 16.5492847 9.83078901 17.8109788 9.28149231 16.06392 6.44006374"></polygon>
                <polygon id="Fill-3" points="9.16786588 17.8047692 15.9085482 14.8685934 15.9085482 10.6502637 10.8069247 12.8721758 9.16786588 10.2056044"></polygon>
                <polygon id="Fill-4" points="7.00411765 12.8721363 1.90185882 10.6498286 1.90185882 14.8685538 8.64296471 17.8047297 8.64296471 10.206356"></polygon>
                <polygon id="Fill-5" points="6.78892235 7.91208791e-05 -4.23529412e-05 2.95662857 1.74701647 5.79805714 8.53619294 2.84170549 6.78934588 7.91208791e-05"></polygon>
                <polygon id="Fill-10" points="6.78934588 12.2381011 8.53598118 9.39706813 1.74701647 6.44012308 -4.23529412e-05 9.28155165 1.69767529 10.0209363 1.69788706 10.0209363 1.90181647 10.1099473"></polygon>
                <path d="M8.90534118,6.41925495 C8.76049412,6.41925495 8.64317647,6.52903516 8.64317647,6.66413407 L8.64317647,7.74611209 C8.64338824,7.88140879 8.76091765,7.99099121 8.90555294,7.99099121 C9.05018824,7.99099121 9.16750588,7.88121099 9.16750588,7.74611209 L9.16750588,6.66413407 C9.16750588,6.52903516 9.05018824,6.41925495 8.90534118,6.41925495" id="Fill-6"></path>
                <path d="M8.90534118,5.82681758 C9.05018824,5.82681758 9.16729412,5.71723516 9.16729412,5.58193846 L9.16729412,4.49976264 C9.16729412,4.36446593 9.04976471,4.25488352 8.90512941,4.25488352 C8.76028235,4.25488352 8.64317647,4.36446593 8.64317647,4.49976264 L8.64317647,5.58193846 C8.64317647,5.71723516 8.76049412,5.82681758 8.90534118,5.82681758" id="Fill-8"></path>
            </g>
        </g>
    </g>
</svg>