<?xml version="1.0" encoding="UTF-8" standalone="no"?>
<svg width="54px" height="50px" viewBox="0 0 54 50" version="1.1" xmlns="http://www.w3.org/2000/svg" xmlns:xlink="http://www.w3.org/1999/xlink">
    <!-- Generator: Sketch 46.2 (44496) - http://www.bohemiancoding.com/sketch -->
    <title>Page 1</title>
    <desc>Created with Sketch.</desc>
    <defs>
        <polygon id="path-1" points="6.00319232e-05 0.465180723 53.9994 0.465180723 53.9994 44.5783133 6.00319232e-05 44.5783133"></polygon>
    </defs>
    <g id="Page-1" stroke="none" stroke-width="1" fill="none" fill-rule="evenodd" opacity="0.100000001">
        <g id="个人打卡记录-今天" transform="translate(-161.000000, -589.000000)">
            <g id="Page-1" transform="translate(161.000000, 589.000000)">
                <g id="Group-3" transform="translate(0.000000, 4.901205)">
                    <mask id="mask-2" fill="white">
                        <use xlink:href="#path-1"></use>
                    </mask>
                    <g id="Clip-2"></g>
                    <path d="M51.47352,40.1392771 C51.47352,41.1880723 50.62332,42.0410843 49.57932,42.0410843 L12.18432,42.0410843 C11.13972,42.0410843 10.29012,41.1880723 10.29012,40.1392771 L10.29012,38.3133735 L39.96432,38.3133735 C42.22152,38.3133735 44.42832,36.7404819 44.98692,34.733253 L51.47412,11.4338554 L51.47412,40.1392771 L51.47352,40.1392771 Z M3.67812,35.7772289 C3.21432,35.7772289 2.82852,35.6326506 2.64552,35.3910843 C2.51772,35.2218072 2.49072,35.0013253 2.56512,34.7338554 L9.60072,9.4639759 L49.39872,9.4639759 L42.55392,34.0513253 C42.30252,34.9543373 41.06772,35.7772289 39.96432,35.7772289 L3.67812,35.7772289 Z M49.57932,0.465180723 L43.56072,0.465180723 L43.56072,0.985662651 L43.56072,1.55433735 C43.56072,1.79409639 43.53432,2.02783133 43.48632,2.25373494 C43.16472,3.79289157 41.80332,4.95253012 40.17552,4.95253012 L39.35772,4.95253012 C37.73052,4.95253012 36.36912,3.79289157 36.04632,2.25373494 C35.99892,2.02783133 35.97252,1.79409639 35.97252,1.55433735 L35.97252,0.985662651 L35.97252,0.465180723 L21.75132,0.465180723 L21.75132,0.985662651 L21.75132,1.55433735 C21.75132,1.79409639 21.72492,2.02783133 21.67752,2.25373494 C21.35532,3.79289157 19.99392,4.95253012 18.36612,4.95253012 L17.54832,4.95253012 C15.92112,4.95253012 14.55972,3.79289157 14.23692,2.25373494 C14.18952,2.02783133 14.16312,1.79409639 14.16312,1.55433735 L14.16312,0.985662651 L14.16312,0.465180723 L12.18372,0.465180723 C9.74592,0.465180723 7.76292,2.45614458 7.76292,4.90373494 L7.76292,6.64168675 L0.13212,34.0513253 C-0.15348,35.0778313 0.02892,36.1248193 0.63312,36.9242169 C1.30032,37.8073494 2.41032,38.3139759 3.67812,38.3139759 L7.76292,38.3139759 L7.76292,40.1398795 C7.76292,42.5868675 9.74592,44.5784337 12.18372,44.5784337 L49.57872,44.5784337 C52.01652,44.5784337 53.99952,42.5868675 53.99952,40.1398795 L53.99952,4.90373494 C54.00012,2.45614458 52.01712,0.465180723 49.57932,0.465180723 L49.57932,0.465180723 Z" id="Fill-1" fill="#000000" mask="url(#mask-2)"></path>
                </g>
                <path d="M17.54832,8.3946988 L18.36612,8.3946988 C19.43112,8.3946988 20.29752,7.52481928 20.29752,6.45554217 L20.29752,1.93927711 C20.29752,0.87 19.43112,0.000120481928 18.36612,0.000120481928 L17.54832,0.000120481928 C16.48332,0.000120481928 15.61692,0.87 15.61692,1.93927711 L15.61692,6.45554217 C15.61692,7.52481928 16.48332,8.3946988 17.54832,8.3946988" id="Fill-4" fill="#000000"></path>
                <path d="M39.35748,8.3946988 L40.17528,8.3946988 C41.24088,8.3946988 42.10668,7.52481928 42.10668,6.45554217 L42.10668,1.93927711 C42.10668,0.87 41.24088,0.000120481928 40.17528,0.000120481928 L39.35748,0.000120481928 C38.29308,0.000120481928 37.42608,0.87 37.42608,1.93927711 L37.42608,6.45554217 C37.42668,7.52481928 38.29368,8.3946988 39.35748,8.3946988" id="Fill-6" fill="#000000"></path>
                <polygon id="Fill-8" fill="#000000" points="23.65698 27.9444578 17.84178 22.4173494 14.22738 26.2516867 23.75118 35.3022892 37.27758 21.769759 33.56658 18.0306024"></polygon>
            </g>
        </g>
    </g>
</svg>