<?xml version="1.0" encoding="UTF-8" standalone="no"?>
<svg width="21px" height="21px" viewBox="0 0 21 21" version="1.1" xmlns="http://www.w3.org/2000/svg" xmlns:xlink="http://www.w3.org/1999/xlink">
    <!-- Generator: Sketch 46.2 (44496) - http://www.bohemiancoding.com/sketch -->
    <title>check</title>
    <desc>Created with Sketch.</desc>
    <defs>
        <polygon id="path-1" points="0 20.9958 21 20.9958 21 0 0 0"></polygon>
    </defs>
    <g id="Symbols" stroke="none" stroke-width="1" fill="none" fill-rule="evenodd">
        <g id="Tool-Bars/假期" transform="translate(-177.000000, -4.000000)">
            <g id="check" transform="translate(177.000000, 4.000000)">
                <path d="M18.9,18.8958 L2.1,18.8958 L2.1,8.3958 L8.4,8.3958 L8.4,12.5958 L12.8576,12.5958 L17.0576,8.3958 L18.9056,8.3958 L18.9056,18.8958 L18.9,18.8958 Z M19.152,6.2958 L20.076,5.3718 C21.3024,4.1454 21.3024,2.1462 20.076,0.9198 C18.8496,-0.3066 16.8504,-0.3066 15.6184,0.9198 L10.2424,6.2958 L0,6.2958 L0,20.9958 L21,20.9958 L21,6.2958 L19.152,6.2958 Z" id="Fill-1" fill="#CFD7D9"></path>
                <mask id="mask-2" fill="white">
                    <use xlink:href="#path-1"></use>
                </mask>
                <g id="Clip-4"></g>
                <polygon id="Fill-3" fill="#CFD7D9" mask="url(#mask-2)" points="4.2 16.7958 16.8 16.7958 16.8 14.6958 4.2 14.6958"></polygon>
                <polygon id="Fill-5" fill="#CFD7D9" mask="url(#mask-2)" points="4.2 12.5958 7.3472 12.5958 7.3472 10.4958 4.2 10.4958"></polygon>
            </g>
        </g>
    </g>
</svg>