<?xml version="1.0" encoding="UTF-8" standalone="no"?>
<svg width="35px" height="34px" viewBox="0 0 35 34" version="1.1" xmlns="http://www.w3.org/2000/svg" xmlns:xlink="http://www.w3.org/1999/xlink">
    <!-- Generator: Sketch 46.2 (44496) - http://www.bohemiancoding.com/sketch -->
    <title>check</title>
    <desc>Created with Sketch.</desc>
    <defs></defs>
    <g id="Page-1" stroke="none" stroke-width="1" fill="none" fill-rule="evenodd">
        <g id="mainpage-box" transform="translate(-216.000000, -182.000000)" fill="#3377DA">
            <g id="check" transform="translate(216.000000, 182.000000)">
                <path d="M25.7143571,31.0222442 C22.229,31.0204547 19.4050714,28.18736 19.4072143,24.6946653 C19.4093571,21.2023284 22.2361429,18.3724547 25.7215,18.3742442 C29.2050714,18.3763916 32.0286429,21.2069811 32.0286429,24.6982442 C32.0247143,28.1891495 29.2015,31.0183074 25.7179286,31.0222442 L25.7143571,31.0222442 Z M2.85721429,22.2072968 L2.85721429,6.87150737 L25.9604286,6.87150737 L25.9604286,15.5110863 L25.7179286,15.5110863 C24.3350714,15.5139495 22.9704286,15.8321179 21.7286429,16.4416126 C21.6197143,16.4144126 21.5086429,16.4000968 21.3965,16.3986653 L15.1107857,16.3986653 C14.3218571,16.3986653 13.6822143,17.0396547 13.6822143,17.8302442 C13.6822143,18.6208337 14.3218571,19.2618232 15.1107857,19.2618232 L18.3250714,19.2618232 C17.3061429,20.6443705 16.6968571,22.2867495 16.5679286,24.0003495 L4.64292857,24.0003495 C3.6565,24.0003495 2.85721429,23.1993811 2.85721429,22.2108758 L2.85721429,22.2072968 Z M4.64292857,2.86308632 L24.1747143,2.86308632 C24.9111429,2.86523368 25.5707857,3.32011789 25.8357857,4.00834947 L2.97864286,4.00834947 C3.244,3.31868632 3.90542857,2.86380211 4.64292857,2.86308632 L4.64292857,2.86308632 Z M28.8175714,16.0550863 L28.8175714,4.65256 C28.8175714,2.08323368 26.739,-7.15789474e-05 24.1747143,-7.15789474e-05 L4.64292857,-7.15789474e-05 C2.07864286,-7.15789474e-05 7.14285714e-05,2.08323368 7.14285714e-05,4.65256 L7.14285714e-05,22.2072968 C7.14285714e-05,24.7769811 2.07864286,26.8599284 4.64292857,26.8599284 L16.8107857,26.8599284 C18.0025714,31.7895705 22.9565,34.8170021 27.8757857,33.6223495 C32.7943571,32.4280547 35.8157857,27.4636968 34.6236429,22.5340547 C33.8982857,19.5338232 31.7168571,17.0997811 28.8175714,16.0550863 L28.8175714,16.0550863 Z" id="Fill-3"></path>
                <path d="M9.68928571,8.31028 L7.18928571,10.8584905 L6.41785714,10.0997537 C5.84214286,9.55897474 4.93821429,9.58832211 4.39857143,10.1652484 C3.8775,10.7221326 3.88428571,11.5911011 4.41428571,12.1397537 L6.2,13.9041747 C6.46678571,14.1672274 6.82571429,14.3150379 7.2,14.3157537 C7.57928571,14.3125326 7.94142857,14.1579221 8.20714286,13.88628 L11.7,10.3073326 C12.2389286,9.73004842 12.2085714,8.82421684 11.6325,8.28379579 C11.0753571,7.76198526 10.2075,7.77021684 9.66071429,8.30312211 L9.68928571,8.31028 Z" id="Fill-1"></path>
                <path d="M25.7178214,19.6877537 C24.9288929,19.6877537 24.28925,20.3287432 24.28925,21.1193326 L24.28925,25.0561747 C24.28925,25.8467642 24.9288929,26.4877537 25.7178214,26.4877537 C26.50675,26.4877537 27.1463929,25.8467642 27.1463929,25.0561747 L27.1463929,21.1193326 C27.1463929,20.3287432 26.50675,19.6877537 25.7178214,19.6877537" id="Fill-6"></path>
                <path d="M25.7178214,26.8456484 C24.9288929,26.8456484 24.28925,27.4866379 24.28925,28.2772274 L24.28925,28.6351221 C24.28925,29.4257116 24.9288929,30.0667011 25.7178214,30.0667011 C26.50675,30.0667011 27.1463929,29.4257116 27.1463929,28.6351221 L27.1463929,28.2772274 C27.1463929,27.4866379 26.50675,26.8456484 25.7178214,26.8456484" id="Fill-8"></path>
            </g>
        </g>
    </g>
</svg>