<svg xmlns="http://www.w3.org/2000/svg" xmlns:xlink="http://www.w3.org/1999/xlink" width="24" height="23" viewBox="0 0 24 23">
  <defs>
    <polygon id="holiday-a" points="0 .19 23.829 .19 23.829 13.441 0 13.441"/>
  </defs>
  <g fill="none" fill-rule="evenodd">
    <g transform="translate(0 9.529)">
      <mask id="holiday-b" fill="#fff">
        <use xlink:href="#holiday-a"/>
      </mask>
      <path fill="#CFD7D9" d="M16.7142286,10.7831766 L23.1716571,4.09226753 C23.5713714,3.67408571 23.7999429,3.10655325 23.8285143,2.47928052 C23.8285143,1.88187792 23.6002286,1.31434545 23.1999429,0.866293506 C22.3713714,-0.0298103896 20.9713714,-0.0298103896 20.1428,0.836423377 L14.3145143,6.90005974 L2.17137143,6.90005974 C0.971371429,6.90005974 -5.71428571e-05,7.91534545 -5.71428571e-05,9.17018961 C-5.71428571e-05,10.4247351 0.971371429,11.4403195 2.17137143,11.4403195 L3.37137143,11.4403195 L2.19994286,12.3662935 C1.9428,12.5753844 1.88565714,12.933826 2.08565714,13.2026571 C2.19994286,13.3520078 2.37137143,13.4413195 2.5428,13.4413195 C2.65708571,13.4413195 2.77137143,13.4117481 2.88565714,13.3221377 L5.3428,11.4403195 L11.9999429,11.4403195 L14.4573714,13.3221377 C14.5713714,13.4117481 14.6856571,13.4413195 14.7999429,13.4413195 C14.9713714,13.4413195 15.1428,13.3520078 15.2570857,13.2026571 C15.4573714,12.933826 15.3999429,12.5753844 15.1428,12.3662935 L13.9142286,11.4403195 L15.1999429,11.4403195 C15.7713714,11.4403195 16.3145143,11.2010597 16.7142286,10.7831766" mask="url(#holiday-b)"/>
    </g>
    <path fill="#CFD7D9" d="M11.0429143 7.43769221C11.0429143 5.79483506 9.7572 4.45067922 8.18577143 4.45067922 6.61434286 4.45067922 5.32862857 5.79483506 5.32862857 7.43769221 5.32862857 9.08054935 6.61434286 10.4247052 8.18577143 10.4247052 9.7572 10.4247052 11.0429143 9.11041948 11.0429143 7.43769221M7.61434286 12.5156143L7.61434286 14.3078221C7.61434286 14.6363935 7.87148571 14.9052247 8.18577143 14.9052247 8.50005714 14.9052247 8.7572 14.6363935 8.7572 14.3078221L8.7572 12.5156143C8.7572 12.1870429 8.50005714 11.9182117 8.18577143 11.9182117 7.87148571 11.9182117 7.61434286 12.1870429 7.61434286 12.5156143M8.7572 2.38967013L8.7572.597462338C8.7572.268890909 8.50005714.0000597402597 8.18577143.0000597402597 7.87148571.0000597402597 7.61434286.268890909 7.61434286.597462338L7.61434286 2.38967013C7.61434286 2.71824156 7.87148571 2.98707273 8.18577143 2.98707273 8.50005714 2.98707273 8.7572 2.71824156 8.7572 2.38967013M1.07137143 7.43769221C1.07137143 7.76626364 1.32851429 8.03509481 1.6428 8.03509481L3.35708571 8.03509481C3.67137143 8.03509481 3.92851429 7.76626364 3.92851429 7.43769221 3.92851429 7.10912078 3.67137143 6.84028961 3.35708571 6.84028961L1.6428 6.84028961C1.32851429 6.84028961 1.07137143 7.10912078 1.07137143 7.43769221M15.2998857 7.43769221C15.2998857 7.10912078 15.0430286 6.84028961 14.7284571 6.84028961L13.0141714 6.84028961C12.6998857 6.84028961 12.4427429 7.10912078 12.4427429 7.43769221 12.4427429 7.76626364 12.6998857 8.03509481 13.0141714 8.03509481L14.7284571 8.03509481C15.0430286 8.03509481 15.2998857 7.76626364 15.2998857 7.43769221M3.55714286 12.8739662C3.7 12.8739662 3.84285714 12.814226 3.95714286 12.6947455L5.15714286 11.4402C5.38571429 11.201239 5.38571429 10.8427974 5.15714286 10.6038364 4.92857143 10.3648753 4.58571429 10.3648753 4.35714286 10.6038364L3.15714286 11.8583818C2.92857143 12.0973429 2.92857143 12.4557844 3.15714286 12.6947455 3.27142857 12.814226 3.41428571 12.8739662 3.55714286 12.8739662M11.6143429 4.48057922C11.7572 4.48057922 11.9000571 4.42083896 12.0140571 4.30135844L13.2143429 3.04681299C13.4426286 2.80785195 13.4426286 2.44941039 13.2143429 2.21044935 12.9857714 1.97148831 12.6429143 1.97148831 12.4143429 2.21044935L11.2143429 3.46499481C10.9857714 3.70395584 10.9857714 4.0623974 11.2143429 4.30135844 11.3286286 4.42083896 11.4714857 4.48057922 11.6143429 4.48057922M4.7572 4.48057922C4.90005714 4.48057922 5.04291429 4.42083896 5.1572 4.30135844 5.38577143 4.0623974 5.38577143 3.70395584 5.1572 3.46499481L3.9572 2.21044935C3.72862857 1.97148831 3.38577143 1.97148831 3.1572 2.21044935 2.92862857 2.44941039 2.92862857 2.80785195 3.1572 3.04681299L4.3572 4.30135844C4.47148571 4.42083896 4.61434286 4.48057922 4.7572 4.48057922M12.4142857 12.7246156C12.5285714 12.8440961 12.6714286 12.9038364 12.8142857 12.9038364 12.9571429 12.9038364 13.1 12.8440961 13.2142857 12.7246156 13.4428571 12.4856545 13.4428571 12.127213 13.2142857 11.8882519L12.0142857 10.6337065C11.7857143 10.3947455 11.4428571 10.3947455 11.2142857 10.6337065 10.9857143 10.8726675 10.9857143 11.2311091 11.2142857 11.4700701L12.4142857 12.7246156z"/>
  </g>
</svg>
