<?xml version="1.0" encoding="UTF-8" standalone="no"?>
<svg width="33px" height="35px" viewBox="0 0 33 35" version="1.1" xmlns="http://www.w3.org/2000/svg" xmlns:xlink="http://www.w3.org/1999/xlink">
    <!-- Generator: Sketch 46.2 (44496) - http://www.bohemiancoding.com/sketch -->
    <title>Fill 1</title>
    <desc>Created with Sketch.</desc>
    <defs></defs>
    <g id="Page-1" stroke="none" stroke-width="1" fill="none" fill-rule="evenodd">
        <g id="mainpage-box" transform="translate(-125.000000, -281.000000)" fill="#254983">
            <path d="M141.591242,316 L157.186938,316 C157.636008,316 157.999848,315.6368 157.999848,315.189317 L157.999848,312.507277 C158.004504,312.104435 157.902084,311.707664 157.702617,311.357321 C157.483453,310.982335 157.153276,310.684132 156.757564,310.503782 C156.175635,310.218793 155.567206,309.99023 154.941588,309.821665 L152.599547,309.193118 C152.122903,309.068122 151.765151,308.674566 151.686367,308.189585 L151.686367,307.307475 L151.686367,307.011058 L151.740083,307.011058 C151.740083,307.011058 153.742277,307.07177 155.091994,306.246802 C155.29934,306.105736 155.353056,305.823604 155.211603,305.616469 C155.182954,305.574685 155.147143,305.5379 155.106318,305.507544 C154.594579,305.082561 153.91023,304.104027 154.125097,301.968394 C154.454558,298.643521 153.713628,295.725776 151.034606,295.972195 C151.034606,295.972195 149.874329,294.579391 147.560938,295.454358 C146.765933,295.754346 144.638759,296.525745 144.74655,301.121998 C144.814233,304.014744 144.148507,305.100417 143.646794,305.511116 C143.447327,305.66611 143.411516,305.953599 143.567294,306.152877 C143.599166,306.193947 143.638558,306.22966 143.682605,306.257516 C144.252358,306.614645 145.301263,307.053914 147.070327,307.039629 L147.088591,307.039629 L147.088591,307.307475 L147.088591,308.189585 C147.009806,308.674566 146.651696,309.068122 146.175052,309.193118 L143.819045,309.818094 C143.193069,309.986659 142.584998,310.215221 142.003069,310.50021 C141.612013,310.683775 141.286849,310.983049 141.071982,311.357321 C140.87538,311.708379 140.775109,312.105149 140.781913,312.507277 L140.781913,315.189317 C140.781913,315.635371 141.143604,315.997857 141.591242,316 M139.062985,310.185937 C139.519933,309.405609 140.204282,308.782776 141.025428,308.400291 C141.433674,308.207441 141.792142,308.043162 142.099759,307.946737 C140.949867,306.927133 140.846731,305.170772 141.869136,304.02403 C141.94792,303.936176 142.032076,303.852965 142.121245,303.775468 C142.185705,303.657615 142.407733,303.150492 142.443544,301.861255 C141.136442,301.068429 139.736232,300.225604 139.435419,300.075609 C138.86674,301.39663 138.216412,302.681581 137.4873,303.921891 C137.459726,303.964032 137.412813,303.989388 137.361962,303.989745 L137.340475,303.989745 C137.268137,303.984745 137.209407,303.92939 137.200812,303.857607 C137.082636,303.500478 136.4452,301.714832 135.528438,301.832685 C135.458606,301.843042 135.390923,301.804829 135.363707,301.739831 C135.338997,301.678762 135.357977,301.608765 135.410261,301.568409 C136.040535,301.068429 137.447908,299.932758 138.275142,299.097075 L138.275142,297.529278 C138.540502,297.081081 138.726003,296.590743 138.823051,296.079334 C139.116701,295.98648 139.381703,295.51507 139.628799,294.650817 C139.854408,293.850848 139.857989,293.329439 139.628799,293.065163 C139.538555,292.959096 139.409635,292.893741 139.270689,292.883027 C139.32154,292.723748 139.362007,292.561611 139.392446,292.397332 C139.661029,290.783108 139.521366,289.615295 138.977038,288.922465 C138.768976,288.64069 138.464583,288.444983 138.121155,288.372486 C137.83789,287.936074 137.447192,287.579302 136.985946,287.336811 C136.270442,286.923255 135.441059,286.747905 134.618838,286.83683 C134.295823,286.85183 133.976388,286.912184 133.669846,287.015395 C133.302067,287.142533 132.953268,287.320383 132.634908,287.543946 C132.241345,287.788937 131.880012,288.083211 131.560578,288.418913 C130.99727,288.971034 130.597977,289.668508 130.407463,290.433121 C130.258489,291.077025 130.258489,291.746285 130.407463,292.390189 C130.437902,292.553397 130.478727,292.714105 130.52922,292.872314 C130.390274,292.88267 130.261354,292.948382 130.17111,293.054449 C129.949082,293.322296 129.949082,293.840134 130.17111,294.640103 C130.418206,295.51507 130.683208,295.990051 130.976858,296.06862 C131.073548,296.585743 131.259049,297.082152 131.524766,297.536421 L131.524766,299.107789 C132.362744,299.943472 133.770117,301.082714 134.389647,301.582695 C134.44229,301.62305 134.46127,301.693047 134.436202,301.754117 C134.41006,301.819828 134.341661,301.858755 134.271471,301.84697 C133.397682,301.714832 132.77099,303.500478 132.652813,303.857607 C132.634908,303.913677 132.586205,303.95439 132.527475,303.961175 L132.505988,303.961175 C132.455495,303.960818 132.408224,303.935462 132.38065,303.89332 C131.652612,302.657653 131.001926,301.377702 130.432531,300.061324 C129.059894,300.812367 127.74384,301.660906 126.493319,302.600513 C125.551848,303.321557 125.000358,304.437942 125,305.621826 L125,314.825045 C125,315.47252 125.525348,315.997857 126.174601,316 L138.56163,316 C138.488934,315.735724 138.451691,315.463235 138.450616,315.189317 L138.450616,312.507277 C138.445245,311.693022 138.656888,310.891981 139.062985,310.185937 M144.531326,281.312042 C146.994408,280.895986 149.509773,280.895986 151.972855,281.312042 C153.746932,281.610959 155.155021,282.96555 155.518503,284.722625 C155.589767,285.072612 155.644558,285.429741 155.683234,285.794013 C155.712957,286.074002 155.727281,286.35542 155.726207,286.636838 C155.727281,286.918256 155.712957,287.199673 155.683234,287.479663 C155.644558,287.834292 155.589767,288.191421 155.518503,288.55105 C155.155021,290.308483 153.746932,291.662717 151.972855,291.961634 C150.748118,292.167341 149.508341,292.269837 148.266773,292.268765 L147.880014,292.268765 C146.750177,293.464077 145.222479,294.207262 143.582693,294.357971 L143.550463,294.357971 C143.330583,294.356185 143.154035,294.177264 143.156183,293.958343 C143.1569,293.856919 143.19665,293.75978 143.267556,293.686568 C143.772133,293.192301 144.141702,292.577682 144.341886,291.900922 C142.666289,291.529865 141.365275,290.212772 141.018266,288.536765 C140.946644,288.186779 140.891853,287.829649 140.853535,287.465378 C140.814501,287.187174 140.790508,286.907185 140.781913,286.626124 C140.780839,286.344706 140.795163,286.063288 140.824886,285.783299 C140.863204,285.428313 140.917995,285.071184 140.989617,284.711912 C141.356322,282.959836 142.761904,281.610959 144.531326,281.312042" id="Fill-1"></path>
        </g>
    </g>
</svg>