<?xml version="1.0" encoding="UTF-8" standalone="no"?>
<svg width="42px" height="41px" viewBox="0 0 42 41" version="1.1" xmlns="http://www.w3.org/2000/svg" xmlns:xlink="http://www.w3.org/1999/xlink">
    <!-- Generator: Sketch 46.2 (44496) - http://www.bohemiancoding.com/sketch -->
    <title>pay</title>
    <desc>Created with Sketch.</desc>
    <defs></defs>
    <g id="Page-1" stroke="none" stroke-width="1" fill="none" fill-rule="evenodd">
        <g id="mainpage-box" transform="translate(-122.000000, -178.000000)" fill="#3EA3F1">
            <g id="pay" transform="translate(122.000000, 178.000000)">
                <path d="M17.9907356,15.9408 C18.5602271,15.9408 18.8449729,16.0140143 19.0585322,16.3068714 C19.2720915,16.5997286 19.2009051,17.0390143 18.9161593,17.3318714 L17.9907356,15.9408 Z M15.2144644,14.4033 C15.0720915,14.1836571 15.0009051,13.8175857 15.3568373,13.3783 L16.282261,14.7693714 C15.7839559,14.8425857 15.4280237,14.6961571 15.2144644,14.4033 L15.2144644,14.4033 Z M18.9873458,18.9425857 L19.4856508,19.7479429 C19.5568373,19.8943714 19.7703966,19.9675857 20.0551424,19.8211571 C20.2687017,19.6747286 20.2687017,19.4550857 20.1975153,19.3086571 L19.6992102,18.5033 C20.6958203,17.6247286 20.9093797,16.4533 20.2687017,15.5015143 C19.5568373,14.4033 18.3466678,14.4765143 17.2076847,14.6961571 C16.9941254,14.4033 16.8517525,14.1104429 16.6381932,13.8175857 C16.4958203,13.5247286 16.282261,13.3050857 16.1398881,13.0122286 C16.4958203,12.9390143 16.8517525,12.8658 17.0653119,12.8658 L17.1364983,12.8658 C17.2076847,12.8658 17.2788712,12.8658 17.3500576,12.7925857 C17.5636169,12.6461571 17.5636169,12.3533 17.5636169,12.0604429 L17.5636169,11.9140143 C17.5636169,11.6211571 17.3500576,11.4747286 17.1364983,11.4747286 C16.8517525,11.4747286 16.1398881,11.5479429 15.4992102,11.9140143 L15.3568373,11.7675857 C15.2144644,11.6211571 15.0009051,11.5479429 14.8585322,11.6943714 L14.7873458,11.7675857 C14.6449729,11.9140143 14.5737864,12.1336571 14.7161593,12.2800857 L14.7873458,12.4265143 C13.7907356,13.3783 13.7907356,14.4765143 14.1466678,15.1354429 C14.2178542,15.2818714 14.2890407,15.3550857 14.3602271,15.5015143 C15.0720915,16.4533 16.1398881,16.4533 17.2076847,16.1604429 C17.4212441,16.4533 17.6348034,16.7461571 17.7771763,17.0390143 C17.9195492,17.3318714 18.1331085,17.6247286 18.3466678,17.8443714 C17.7771763,17.9908 17.2076847,17.9908 17.0653119,17.9175857 C16.8517525,17.9175857 16.7093797,18.0640143 16.6381932,18.3568714 L16.6381932,18.8693714 C16.6381932,19.2354429 16.8517525,19.2354429 16.9941254,19.3086571 C17.1364983,19.3086571 17.9907356,19.4550857 18.9873458,18.9425857 L18.9873458,18.9425857 Z" id="Fill-1"></path>
                <path d="M39.2045085,32.9266607 C39.2045085,32.999875 39.1326102,33.0723571 39.0621356,33.0723571 L36.1427797,33.0723571 C36.0723051,33.0723571 36.0011186,32.999875 36.0011186,32.9266607 L36.0011186,31.242 C36.0011186,31.1695179 36.0723051,31.0963036 36.1427797,31.0963036 L39.0621356,31.0963036 C39.1326102,31.0963036 39.2045085,31.1695179 39.2045085,31.242 L39.2045085,32.9266607 Z M34.7190508,32.9266607 C34.7190508,32.999875 34.6485763,33.0723571 34.5773898,33.0723571 L31.6580339,33.0723571 C31.5875593,33.0723571 31.515661,32.999875 31.515661,32.9266607 L31.515661,31.242 C31.515661,31.1695179 31.5875593,31.0963036 31.6580339,31.0963036 L34.5773898,31.0963036 C34.6485763,31.0963036 34.7190508,31.1695179 34.7190508,31.242 L34.7190508,32.9266607 Z M30.2343051,32.9266607 C30.2343051,32.999875 30.1638305,33.0723571 30.0919322,33.0723571 L27.174,33.0723571 C27.1028136,33.0723571 27.0309153,32.999875 27.0309153,32.9266607 L27.0309153,31.242 C27.0309153,31.1695179 27.1028136,31.0963036 27.174,31.0963036 L30.0919322,31.0963036 C30.1638305,31.0963036 30.2343051,31.1695179 30.2343051,31.242 L30.2343051,32.9266607 Z M40.8417966,28.899875 L16.9231525,28.899875 C16.5672203,28.899875 16.2112881,29.192 16.2112881,29.6320179 L16.2112881,38.8570179 C16.2112881,39.6616429 16.8519661,40.3213036 17.6350169,40.3213036 L40.0580339,40.3213036 C40.8417966,40.3213036 41.4817627,39.6616429 41.4817627,38.8570179 L41.4817627,29.6320179 C41.553661,29.2659464 41.1977288,28.899875 40.8417966,28.899875 L40.8417966,28.899875 Z" id="Fill-5"></path>
                <path d="M12.367078,19.0155804 C10.5162305,16.2334375 11.2992814,12.4262946 14.0043661,10.5959375 C16.7094508,8.69236607 20.4111458,9.49772321 22.1908068,12.2798661 C24.0409424,15.0620089 23.2586034,18.8691518 20.5535186,20.6995089 C17.8484339,22.5298661 14.146739,21.7977232 12.367078,19.0155804 M40.0578915,21.8709375 L22.6891119,21.8709375 L34.0070441,14.0370089 C34.5772475,13.5977232 34.7189085,12.7923661 34.3629763,12.2066518 L26.6755525,0.565580357 C26.2484339,-0.0201339286 25.4646712,-0.1665625 24.8958915,0.199508929 L0.550128814,17.0387946 C-0.0193627119,17.4780804 -0.161735593,18.2834375 0.19419661,18.8691518 L7.81114576,30.5102232 C8.23826441,31.0959375 9.02131525,31.2423661 9.59080678,30.8762946 L16.567078,26.0441518 C16.6382644,26.1173661 16.7806373,26.1173661 16.9230102,26.1173661 L40.8416542,26.1173661 C41.1975864,26.1173661 41.5535186,25.8245089 41.5535186,25.3852232 L41.5535186,23.2620089 C41.5535186,22.5298661 40.9128407,21.8709375 40.0578915,21.8709375" id="Fill-3"></path>
            </g>
        </g>
    </g>
</svg>