<svg xmlns="http://www.w3.org/2000/svg" width="23" height="26" viewBox="0 0 23 26">
  <path fill="#8994A0" fill-rule="evenodd" d="M32.4775371,37.8434897 C31.8272848,37.5095342 31.0716488,37.3422675 30.2097605,37.3422675 C29.2245385,37.3422675 28.3965235,37.6100675 27.7265841,38.144223 C26.932732,38.7841119 26.5360954,39.7290674 26.5360954,40.9799562 L28.6883553,40.9799562 L28.6883553,40.9655118 C28.6883553,40.4882674 28.7891068,40.0968229 28.9900307,39.7914674 C29.2673868,39.3809563 29.7172942,39.1755563 30.339174,39.1755563 C30.7222033,39.1755563 31.0479085,39.2758007 31.3151315,39.4760007 C31.6501012,39.7533341 31.8180203,40.1730896 31.8180203,40.7364229 C31.8180203,41.089734 31.7311656,41.4046229 31.5591933,41.6816673 C31.4155935,41.9298229 31.1860075,42.1730673 30.8698563,42.4119784 C30.2002065,42.8701562 29.7647748,43.3237117 29.5641404,43.772645 C29.3918786,44.1450228 29.3053133,44.7369561 29.3053133,45.548156 L31.3296073,45.548156 C31.3296073,45.0134227 31.4008282,44.6127339 31.545007,44.3452228 C31.6596552,44.1256672 31.8990847,43.8919561 32.2627165,43.6435117 C32.8944398,43.1755117 33.3437682,42.7410228 33.6118598,42.3400451 C33.9369859,41.8628006 34.0999833,41.3040896 34.0999833,40.6642007 C34.0999833,39.3382007 33.5594574,38.3975786 32.4775371,37.8434897 Z M29.2479892,48.7996003 L31.4732071,48.7996003 L31.4732071,46.5939338 L29.2479892,46.5939338 L29.2479892,48.7996003 Z M37.8628191,48.9608003 C35.991679,51.1913114 33.2835489,52.4101335 30.4984077,52.4101335 C29.4845236,52.4101335 28.461954,52.2483558 27.4654409,51.9155558 L27.0372472,51.7728447 L24.475612,53.4839335 L24.5838909,50.3743336 L24.2497898,50.0877558 C21.9970679,48.1516226 20.8372679,45.3993783 20.8361098,42.6185339 C20.8372679,40.3732896 21.5914564,38.1248675 23.1371808,36.2840675 C25.054354,34.0006899 27.7656687,32.8347344 30.504198,32.8335788 C32.7126239,32.8347344 34.9282878,33.5933565 36.7516578,35.1574009 C39.0046692,37.0932453 40.160995,39.8457785 40.1627321,42.6263339 C40.160995,44.8707116 39.4076751,47.1188449 37.8628191,48.9608003 Z M37.9502529,33.7678454 C35.7869914,31.9114455 33.1353169,30.9988455 30.504198,31.0000011 C27.2442509,30.9988455 23.9999377,32.3996677 21.7295554,35.1068454 C19.8960523,37.2894008 18.9988431,39.9648007 19.0000011,42.6185339 C18.9988431,45.7636671 20.2602631,48.8995559 22.7176725,51.1786002 L22.5124059,57 L24.005149,56.0033334 L27.319525,53.7904446 C28.3667034,54.0943557 29.437043,54.2434223 30.4981181,54.2434223 C33.819153,54.2434223 37.0489904,52.7868446 39.2713132,50.1377336 C41.1027896,47.9546004 42.0011569,45.2792005 41.9999989,42.6263339 C42.0014464,39.3413785 40.6265363,36.0665342 37.9502529,33.7678454 Z" transform="translate(-19 -31)"/>
</svg>
