<?xml version="1.0" encoding="UTF-8" standalone="no"?>
<svg width="22px" height="22px" viewBox="0 0 22 22" version="1.1" xmlns="http://www.w3.org/2000/svg" xmlns:xlink="http://www.w3.org/1999/xlink">
    <!-- Generator: Sketch 46.2 (44496) - http://www.bohemiancoding.com/sketch -->
    <title>Fill 1</title>
    <desc>Created with Sketch.</desc>
    <defs></defs>
    <g id="Page-1" stroke="none" stroke-width="1" fill="none" fill-rule="evenodd">
        <g id="假期-申请假期-选择托管" transform="translate(-329.000000, -89.000000)" fill="#3EA3F1">
            <path d="M349.858247,110.822526 C349.6008,110.822526 349.3588,110.722355 349.176715,110.540738 L339.911438,101.275696 L330.64663,110.54027 C330.464077,110.722355 330.222077,110.822526 329.96463,110.822526 C329.707183,110.822526 329.465183,110.722355 329.282864,110.540738 C329.100311,110.358185 328.999906,110.115717 328.999906,109.857802 C329.00014,109.600121 329.100545,109.357887 329.282864,109.176036 L338.547204,99.9112277 L329.28263,90.6464191 C328.906523,90.2705468 328.906523,89.6585255 329.282396,89.2826532 C329.464715,89.100334 329.706949,88.9999298 329.96463,88.9999298 C330.222545,88.9999298 330.464779,89.100334 330.646864,89.2826532 L339.911438,98.5472277 L349.176247,89.2824191 C349.358332,89.100334 349.600566,88.9999298 349.858247,88.9999298 C350.115928,88.9999298 350.358162,89.100334 350.540247,89.2824191 C350.916119,89.6585255 350.916119,90.2705468 350.540481,90.6464191 L341.275438,99.9112277 L350.540247,109.17627 C350.722332,109.358121 350.822736,109.600355 350.822736,109.85827 C350.822736,110.115717 350.722332,110.358185 350.540247,110.54027 C350.357694,110.722355 350.115694,110.822526 349.858247,110.822526" id="Fill-1"></path>
        </g>
    </g>
</svg>