<?xml version="1.0" encoding="UTF-8" standalone="no"?>
<svg width="23px" height="20px" viewBox="0 0 23 20" version="1.1" xmlns="http://www.w3.org/2000/svg" xmlns:xlink="http://www.w3.org/1999/xlink">
    <!-- Generator: Sketch 46.2 (44496) - http://www.bohemiancoding.com/sketch -->
    <title>map</title>
    <desc>Created with Sketch.</desc>
    <defs></defs>
    <g id="Page-1" stroke="none" stroke-width="1" fill="none" fill-rule="evenodd">
        <g id="个人打卡记录-今天" transform="translate(-20.000000, -33.000000)" fill="#8994A0">
            <g id="map" transform="translate(20.000000, 33.000000)">
                <path d="M4.12045,9.09703226 L0.000255555556,19.4634839 L22.5811444,19.4634839 L18.4583944,9.09703226 L4.12045,9.09703226 Z M5.52345,11.2667097 L17.05795,11.2667097 L19.2448667,17.2957419 L3.33781111,17.2957419 L5.52345,11.2667097 Z" id="Fill-1"></path>
                <path d="M12.9431861,4.39619355 C12.9431861,3.52458065 12.2391306,2.8136129 11.3734361,2.8136129 C10.5083806,2.8136129 9.80688056,3.52458065 9.80688056,4.39619355 C9.80688056,5.27103226 10.5083806,5.982 11.3734361,5.982 C12.2391306,5.982 12.9431861,5.27103226 12.9431861,4.39619355 M7.12354722,3.55554839 C7.54329722,1.57877419 9.02679722,6.4516129e-05 11.3708806,6.4516129e-05 C13.7181583,6.4516129e-05 15.2003806,1.57877419 15.6201306,3.55554839 C16.4545194,7.48716129 13.1776583,11.1303871 11.3708806,14.8316774 C9.68165833,11.0703871 6.28851944,7.48716129 7.12354722,3.55554839" id="Fill-2"></path>
            </g>
        </g>
    </g>
</svg>