<?xml version="1.0" encoding="UTF-8" standalone="no"?>
<svg width="20px" height="20px" viewBox="0 0 20 20" version="1.1" xmlns="http://www.w3.org/2000/svg" xmlns:xlink="http://www.w3.org/1999/xlink">
    <!-- Generator: Sketch 46.2 (44496) - http://www.bohemiancoding.com/sketch -->
    <title>Fill 1</title>
    <desc>Created with Sketch.</desc>
    <defs></defs>
    <g id="Page-1" stroke="none" stroke-width="1" fill="none" fill-rule="evenodd">
        <g id="假期-申请假期-选择一级审批人" transform="translate(-337.000000, -30.000000)" fill="#3EA3F1">
            <path d="M356.545957,47.3526936 L353.726558,44.5334928 C353.42796,44.2351143 353.037878,44.0847067 352.646689,44.0802764 L350.961651,42.3956672 L349.395786,43.9615453 L351.080159,45.646376 C351.08459,46.0375687 351.234996,46.4274322 351.533594,46.7266968 L354.353214,49.5456761 C354.655799,49.8487064 355.052747,50 355.449475,50 C355.846202,50 356.24315,49.8487064 356.545957,49.5456761 C357.151348,48.9400585 357.151348,47.9583112 356.545957,47.3526936 M347.693691,40.6937799 C346.755811,41.6318891 345.508701,42.1484583 344.181847,42.1484583 C342.854993,42.1484583 341.608105,41.6318891 340.670003,40.6937799 C339.731902,39.7556707 339.215337,38.5083289 339.215337,37.1816853 C339.215337,35.8554847 339.731902,34.6081428 340.670225,33.6695906 C341.608105,32.7319245 342.855215,32.2153553 344.181847,32.2153553 C345.50848,32.2153553 346.75559,32.7319245 347.693691,33.6700337 C348.631571,34.6081428 349.148357,35.8554847 349.148357,37.1819068 C349.148579,38.5087719 348.632014,39.7554492 347.693691,40.6937799 M349.259999,32.1039341 C347.903463,30.7471646 346.099916,30 344.181626,30 C342.263336,30 340.46001,30.7471646 339.103695,32.1034911 C337.747158,33.4598175 337,35.2636009 337,37.1816853 C337,39.1002127 337.746937,40.9035531 339.103474,42.2603225 C340.46001,43.6166489 342.263557,44.3638136 344.181847,44.3638136 C346.100137,44.3638136 347.903684,43.6166489 349.259999,42.2603225 C350.616536,40.9039961 351.363694,39.1002127 351.363473,37.1816853 C351.363473,35.2633794 350.616314,33.4602605 349.259999,32.1039341" id="Fill-1"></path>
        </g>
    </g>
</svg>