<?xml version="1.0" encoding="UTF-8" standalone="no"?>
<svg width="14px" height="14px" viewBox="0 0 14 14" version="1.1" xmlns="http://www.w3.org/2000/svg" xmlns:xlink="http://www.w3.org/1999/xlink">
    <!-- Generator: Sketch 46.2 (44496) - http://www.bohemiancoding.com/sketch -->
    <title>Page 1</title>
    <desc>Created with Sketch.</desc>
    <defs></defs>
    <g id="Symbols" stroke="none" stroke-width="1" fill="none" fill-rule="evenodd">
        <g id="迟到thumb" transform="translate(-279.000000, -13.000000)" fill="#3377DA">
            <g id="迟到">
                <path d="M286,20 L286,14.8666667 C288.835,14.8666667 291.133333,17.165 291.133333,20 L286,20 Z M286,13.9333333 C282.649567,13.9333333 279.933333,16.6495667 279.933333,20 C279.933333,23.3504333 282.649567,26.0666667 286,26.0666667 C289.350433,26.0666667 292.066667,23.3504333 292.066667,20 C292.066667,16.6495667 289.350433,13.9333333 286,13.9333333 L286,13.9333333 Z M286,27 C282.134133,27 279,23.8658667 279,20 C279,16.1339 282.134133,13 286,13 C289.865867,13 293,16.1339 293,20 C293,23.8658667 289.865867,27 286,27 L286,27 Z" id="Page-1"></path>
            </g>
        </g>
    </g>
</svg>