<?xml version="1.0" encoding="UTF-8" standalone="no"?>
<svg width="12px" height="14px" viewBox="0 0 12 14" version="1.1" xmlns="http://www.w3.org/2000/svg" xmlns:xlink="http://www.w3.org/1999/xlink">
    <!-- Generator: Sketch 46.2 (44496) - http://www.bohemiancoding.com/sketch -->
    <title>word - Assistor</title>
    <desc>Created with Sketch.</desc>
    <defs></defs>
    <g id="Page-1" stroke="none" stroke-width="1" fill="none" fill-rule="evenodd">
        <g id="假期-申请假期-添加工作交接" transform="translate(-179.000000, -268.000000)" fill-rule="nonzero">
            <g id="word---Assistor" transform="translate(179.000000, 268.000000)">
                <path d="M11.97,2.89130435 L9.15,0.0304347826 L9.15,0 L0.9,0 C0.405,0 0,0.410869565 0,0.913043478 L0,13.0869565 C0,13.5891304 0.405,14 0.9,14 L11.1,14 C11.595,14 12,13.5891304 12,13.0869565 L12,2.89130435 L11.97,2.89130435 Z M11.97,2.89130435 L12.018,2.94 L12.018,2.89130435 L11.97,2.89130435 Z M9.12,0 L9.168,0.0486956522 L9.168,0 L9.12,0 Z" id="圆角矩形_1_拷贝_2" fill="#63A2EF"></path>
                <path d="M11.97,2.89130435 L9.75,2.89130435 C9.42,2.89130435 9.15,2.6173913 9.15,2.2826087 L9.15,0.0304347826 L11.97,2.89130435 Z" id="Shape" fill-opacity="0.2" fill="#FFFFFF"></path>
                <g id="组_1" transform="translate(2.400000, 7.913043)" fill="#FFFFFF">
                    <path d="M0.3,0 L6.9,0 C7.065,0 7.2,0.136956522 7.2,0.304347826 C7.2,0.47173913 7.065,0.608695652 6.9,0.608695652 L0.3,0.608695652 C0.135,0.608695652 0,0.47173913 0,0.304347826 C0,0.136956522 0.135,0 0.3,0 Z M0.3,1.52173913 L6.9,1.52173913 C7.065,1.52173913 7.2,1.65869565 7.2,1.82608696 C7.2,1.99347826 7.065,2.13043478 6.9,2.13043478 L0.3,2.13043478 C0.135,2.13043478 0,1.99347826 0,1.82608696 C0,1.65869565 0.135,1.52173913 0.3,1.52173913 Z M0.3,3.04347826 L4.8,3.04347826 C4.965,3.04347826 5.1,3.18043478 5.1,3.34782609 C5.1,3.51521739 4.965,3.65217391 4.8,3.65217391 L0.3,3.65217391 C0.135,3.65217391 0,3.51521739 0,3.34782609 C0,3.18043478 0.135,3.04347826 0.3,3.04347826 Z" id="圆角矩形_3"></path>
                </g>
                <g id="组_2" transform="translate(2.250000, 2.434783)" fill="#FFFFFF">
                    <path d="M0.315,0.0152173913 C0.435,-0.0152173913 0.57,0.0608695652 0.6,0.182608696 C0.6,0.182608696 0.6,0.182608696 0.6,0.182608696 L1.35,2.2826087 C1.38,2.40434783 1.305,2.54130435 1.185,2.57173913 C1.065,2.60217391 0.93,2.52608696 0.9,2.40434783 C0.9,2.40434783 0.9,2.40434783 0.9,2.40434783 L0.15,0.304347826 C0.12,0.167391304 0.195,0.0456521739 0.315,0.0152173913 Z" id="圆角矩形_2_拷贝_2"></path>
                    <path d="M1.935,0.0152173913 C1.815,-0.0152173913 1.68,0.0608695652 1.65,0.182608696 C1.65,0.182608696 1.65,0.182608696 1.65,0.182608696 L0.9,2.2826087 C0.87,2.40434783 0.945,2.54130435 1.065,2.57173913 C1.185,2.60217391 1.32,2.52608696 1.35,2.40434783 C1.35,2.40434783 1.35,2.40434783 1.35,2.40434783 L2.1,0.304347826 C2.13,0.167391304 2.055,0.0456521739 1.935,0.0152173913 Z" id="圆角矩形_2_拷贝_3"></path>
                    <path d="M1.815,0.0152173913 C1.935,-0.0152173913 2.07,0.0608695652 2.1,0.182608696 C2.1,0.182608696 2.1,0.182608696 2.1,0.182608696 L2.85,2.2826087 C2.88,2.40434783 2.805,2.54130435 2.685,2.57173913 C2.565,2.60217391 2.43,2.52608696 2.4,2.40434783 C2.4,2.40434783 2.4,2.40434783 2.4,2.40434783 L1.65,0.304347826 C1.62,0.167391304 1.695,0.0456521739 1.815,0.0152173913 Z" id="圆角矩形_2_拷贝_4"></path>
                    <path d="M3.435,0.0152173913 C3.315,-0.0152173913 3.18,0.0608695652 3.15,0.182608696 C3.15,0.182608696 3.15,0.182608696 3.15,0.182608696 L2.4,2.2826087 C2.37,2.40434783 2.445,2.54130435 2.565,2.57173913 C2.685,2.60217391 2.82,2.52608696 2.85,2.40434783 C2.85,2.40434783 2.85,2.40434783 2.85,2.40434783 L3.6,0.304347826 C3.63,0.167391304 3.555,0.0456521739 3.435,0.0152173913 Z" id="圆角矩形_2_拷贝_4-2"></path>
                </g>
            </g>
        </g>
    </g>
</svg>