<svg xmlns="http://www.w3.org/2000/svg" width="20" height="22" viewBox="0 0 20 22">
  <g fill="#8994A0" fill-rule="evenodd">
    <path d="M19.4744706,10.1752444 L15.6737647,6.2282 C15.4951765,6.04364444 15.2274118,5.98791111 14.9947059,6.08837778 C14.7622353,6.18835556 14.6102353,6.42473333 14.6102353,6.68604444 L14.6102353,8.84302222 L8.30435294,8.84302222 C7.846,8.84302222 7.47423529,9.22924444 7.47423529,9.70566667 L7.47423529,12.2938444 C7.47423529,12.7702667 7.84623529,13.1564889 8.30435294,13.1564889 L14.6104706,13.1564889 L14.6104706,15.3137111 C14.6104706,15.5745333 14.7627059,15.8109111 14.9954118,15.9108889 C15.0718824,15.9441333 15.1532941,15.9600222 15.2337647,15.9600222 C15.3954118,15.9600222 15.5547059,15.8942667 15.6742353,15.7708222 L19.4761176,11.8223111 C19.91,11.3688667 19.9102353,10.6306444 19.4744706,10.1752444"/>
    <path d="M12.0415529,15.9607311 L11.2112,15.9607311 C10.7523765,15.9607311 10.3803765,16.3469533 10.3803765,16.8233756 L10.3803765,19.2824867 C10.3803765,19.35362 10.3250824,19.4117978 10.2561412,19.4117978 L2.61567059,19.4117978 C2.54696471,19.4117978 2.49143529,19.35362 2.49143529,19.2824867 L2.49143529,2.71746444 C2.49143529,2.64584222 2.54696471,2.58815333 2.61567059,2.58815333 L10.2561412,2.58815333 C10.3250824,2.58815333 10.3803765,2.64584222 10.3803765,2.71746444 L10.3803765,5.17608667 C10.3803765,5.65250889 10.7523765,6.03873111 11.2112,6.03873111 L12.0415529,6.03873111 C12.5001412,6.03873111 12.8719059,5.65250889 12.8719059,5.17608667 L12.8719059,2.58815333 C12.8719059,1.16108667 11.7542588,-2.44444444e-05 10.3803765,-2.44444444e-05 L2.49143529,-2.44444444e-05 C1.11755294,-2.44444444e-05 -9.41176471e-05,1.16108667 -9.41176471e-05,2.58815333 L-9.41176471e-05,19.4117978 C-9.41176471e-05,20.8388644 1.11755294,21.9999756 2.49143529,21.9999756 L10.3803765,21.9999756 C11.7542588,21.9999756 12.8719059,20.8388644 12.8719059,19.4117978 L12.8719059,16.8233756 C12.8719059,16.3469533 12.5001412,15.9607311 12.0415529,15.9607311"/>
  </g>
</svg>
