<?xml version="1.0" encoding="UTF-8" standalone="no"?>
<svg width="17px" height="17px" viewBox="0 0 17 17" version="1.1" xmlns="http://www.w3.org/2000/svg" xmlns:xlink="http://www.w3.org/1999/xlink">
    <!-- Generator: Sketch 46.2 (44496) - http://www.bohemiancoding.com/sketch -->
    <title>Fill 1</title>
    <desc>Created with Sketch.</desc>
    <defs></defs>
    <g id="Symbols" stroke="none" stroke-width="1" fill="none" fill-rule="evenodd">
        <g id="Tool-Bars/box" transform="translate(-38.000000, -8.000000)" fill="#8994A0">
            <path d="M54.7617694,16.528568 L47.1234764,8.22472189 C46.9882203,8.08127811 46.7984122,8 46.600023,8 C46.4014294,8 46.2116213,8.08127811 46.0763652,8.22472189 L38.1914647,16.5738343 C37.9977747,16.7790414 37.9458789,17.0775976 38.0594777,17.3347101 C38.1732808,17.5912189 38.4307169,17.7573964 38.7151225,17.7573964 L40.743147,17.7573964 L40.743147,23.7928994 C40.743147,24.4594201 41.2727299,25 41.9496234,25 L42.5819764,25 L42.9906052,25 L43.1268829,25 L43.3992339,25 C43.8505644,25 44.2164914,24.6396805 44.2164914,24.1952663 L44.2164914,21.1775148 C44.2164914,20.7331006 44.5824185,20.3727811 45.033749,20.3727811 L47.8941502,20.3727811 C48.3454807,20.3727811 48.7114078,20.7331006 48.7114078,21.1775148 L48.7114078,24.1952663 C48.7114078,24.6396805 49.0773348,25 49.5286653,25 L50.9394561,25 C51.6163496,25 52.1847522,24.4594201 52.1847522,23.7928994 L52.1847522,17.7573964 L54.2808134,17.7573964 C54.2822436,17.7575976 54.2838781,17.7573964 54.2848997,17.7573964 C54.6800437,17.7573964 55,17.4423432 55,17.0532544 C54.9997957,16.8448284 54.9078542,16.6575266 54.7617694,16.528568" id="Fill-1"></path>
        </g>
    </g>
</svg>