<?xml version="1.0" encoding="UTF-8" standalone="no"?>
<svg width="16px" height="18px" viewBox="0 0 16 18" version="1.1" xmlns="http://www.w3.org/2000/svg" xmlns:xlink="http://www.w3.org/1999/xlink">
    <!-- Generator: Sketch 46.2 (44496) - http://www.bohemiancoding.com/sketch -->
    <title>info</title>
    <desc>Created with Sketch.</desc>
    <defs></defs>
    <g id="Symbols" stroke="none" stroke-width="1" fill="none" fill-rule="evenodd">
        <g id="Tool-Bars/box" transform="translate(-133.000000, -7.000000)" fill="#8994A0">
            <g id="info" transform="translate(133.000000, 7.000000)">
                <path d="M12.6564776,8.27027027 C12.2607761,8.27027027 11.9402985,7.94383784 11.9402985,7.54054054 C11.9402985,7.13724324 12.2607761,6.81081081 12.6564776,6.81081081 C13.0524179,6.81081081 13.3731343,7.13724324 13.3731343,7.54054054 C13.3731343,7.94383784 13.0524179,8.27027027 12.6564776,8.27027027 M10.7460299,8.27027027 C10.3503284,8.27027027 10.0298507,7.94383784 10.0298507,7.54054054 C10.0298507,7.13724324 10.3503284,6.81081081 10.7460299,6.81081081 C11.1419701,6.81081081 11.4626866,7.13724324 11.4626866,7.54054054 C11.4626866,7.94383784 11.1419701,8.27027027 10.7460299,8.27027027 M8.83558209,8.27027027 C8.4398806,8.27027027 8.11940299,7.94383784 8.11940299,7.54054054 C8.11940299,7.13724324 8.4398806,6.81081081 8.83558209,6.81081081 C9.23152239,6.81081081 9.55223881,7.13724324 9.55223881,7.54054054 C9.55223881,7.94383784 9.23152239,8.27027027 8.83558209,8.27027027 M13.6119403,2.91891892 L7.88059701,2.91891892 C6.56716418,2.91891892 5.49253731,4.01351351 5.49253731,5.35135135 L5.49253731,11.6756757 L7.40298507,9.97297297 L13.6119403,9.97297297 C14.9253731,9.97297297 16,8.87837838 16,7.54054054 L16,5.35135135 C16,4.01351351 14.9253731,2.91891892 13.6119403,2.91891892" id="Fill-1"></path>
                <path d="M9.07462687,11.1891892 L9.07462687,14.5945946 L1.67164179,14.5945946 L1.67164179,2.91891892 L5.21838806,2.91891892 C5.87462687,2.17435135 6.82340299,1.7027027 7.88059701,1.7027027 L10.7462687,1.7027027 L10.7462687,0 L0,0 L0,15.5675676 C0,16.9054054 1.07462687,18 2.3880597,18 L8.35820896,18 C9.67164179,18 10.7462687,16.9054054 10.7462687,15.5675676 L10.7462687,11.1891892 L9.07462687,11.1891892 Z" id="Fill-3"></path>
            </g>
        </g>
    </g>
</svg>