<?xml version="1.0" encoding="UTF-8" standalone="no"?>
<svg width="12px" height="19px" viewBox="0 0 12 19" version="1.1" xmlns="http://www.w3.org/2000/svg" xmlns:xlink="http://www.w3.org/1999/xlink">
    <!-- Generator: Sketch 46.2 (44496) - http://www.bohemiancoding.com/sketch -->
    <title>man</title>
    <desc>Created with Sketch.</desc>
    <defs></defs>
    <g id="Symbols" stroke="none" stroke-width="1" fill="none" fill-rule="evenodd">
        <g id="Tool-Bars/box" transform="translate(-322.000000, -6.000000)" fill="#8994A0">
            <g id="man" transform="translate(322.000000, 6.000000)">
                <path d="M10.33301,10.4023711 L8.79098281,9.1861469 C8.45970679,8.98998171 8.03080181,9.16933274 7.93306425,9.55045369 L6.7113448,13.8941115 L6.24432217,10.9684478 C6.21179729,10.7610732 6.26061176,10.5536985 6.37469321,10.3911617 L6.45614118,10.2790673 C6.6950009,9.94278407 6.72763439,9.42714985 6.29862081,9.20296106 C6.1032,9.10207611 5.86423167,9.10207611 5.66881086,9.20296106 C5.23979729,9.42714985 5.27237647,9.94278407 5.5112905,10.2790673 L5.59273846,10.3911617 C5.70676561,10.5536985 5.75563439,10.7610732 5.7231095,10.9684478 L5.25608688,13.8941115 L4.03436742,9.55045369 C3.93662986,9.16933274 3.50767059,8.98437699 3.17644887,9.1861469 L1.63436742,10.4023711 C0.62441267,11.0749375 -2.1719457e-05,12.3191853 -2.1719457e-05,13.6587133 L0.304050679,17.8566484 C0.347543891,18.484377 0.857896833,18.9719316 1.46604163,18.9719316 L10.5067656,18.9719316 C11.1149104,18.9719316 11.6253719,18.484377 11.6688109,17.8566484 L11.972829,13.6587133 C11.9674534,12.3191853 11.343019,11.0749375 10.33301,10.4023711" id="Fill-1"></path>
                <path d="M2.37285068,4.932159 L2.37285068,4.95457788 C2.35113122,7.14041858 4.0561086,8.87788171 6.17375566,8.76578732 C8.07963801,8.66490236 9.6,7.03392891 9.6,5.03864867 L9.6,4.932159 C9.6,4.79764572 9.62714932,4.66313245 9.68144796,4.53982861 C9.86063348,4.14189351 9.95294118,3.69912065 9.86063348,3.12743923 C9.66515837,1.9560528 8.73122172,5.60471976e-06 5.98371041,5.60471976e-06 C4.15927602,5.60471976e-06 3.48597285,0.700595575 3.28506787,1.49086106 C2.70950226,1.60856018 2.26968326,2.18024159 2.11221719,3.12743923 C2.0199095,3.70472537 2.11221719,4.14189351 2.29140271,4.53982861 C2.34570136,4.66313245 2.37285068,4.79764572 2.37285068,4.932159" id="Fill-4"></path>
            </g>
        </g>
    </g>
</svg>