<?xml version="1.0" encoding="UTF-8" standalone="no"?>
<svg width="38px" height="32px" viewBox="0 0 38 32" version="1.1" xmlns="http://www.w3.org/2000/svg" xmlns:xlink="http://www.w3.org/1999/xlink">
    <!-- Generator: Sketch 46.2 (44496) - http://www.bohemiancoding.com/sketch -->
    <title>meeting</title>
    <desc>Created with Sketch.</desc>
    <defs></defs>
    <g id="Page-1" stroke="none" stroke-width="1" fill="none" fill-rule="evenodd">
        <g id="mainpage-box" transform="translate(-38.000000, -283.000000)" fill="#3377DA">
            <g id="meeting" transform="translate(38.000000, 283.000000)">
                <path d="M29.2916667,21.6 C27.9775,21.6 26.9166667,20.528 26.9166667,19.2 C26.9166667,17.88 27.9775,16.8 29.2916667,16.8 C30.5979167,16.8 31.6666667,17.88 31.6666667,19.2 C31.6666667,20.528 30.5979167,21.6 29.2916667,21.6 L29.2916667,21.6 Z M23.75,24 L38,24 L38,14.4 L23.75,14.4 L23.75,24 Z" id="Fill-1"></path>
                <path d="M22.1666667,12.8 L33.25,12.8 L33.25,7.2 L4.35416667,7.2 C2.82625,7.2 1.58333333,5.944 1.58333333,4.4 C1.58333333,2.856 2.82625,1.6 4.35416667,1.6 L32.4583333,1.6 L32.4583333,0 L4.35416667,0 C1.9475,0 0,1.976 0,4.4 L0,27.6 C0,30.024 1.9475,32 4.35416667,32 L33.25,32 L33.25,25.6 L22.1666667,25.6 L22.1666667,12.8 Z" id="Fill-3"></path>
                <path d="M29.2916667,18.4 C28.8546667,18.4 28.5,18.7592 28.5,19.2 C28.5,19.6408 28.8546667,20 29.2916667,20 C29.7286667,20 30.0833333,19.6408 30.0833333,19.2 C30.0833333,18.7664 29.72075,18.4 29.2916667,18.4" id="Fill-5"></path>
            </g>
        </g>
    </g>
</svg>