<?xml version="1.0" encoding="UTF-8" standalone="no"?>
<svg width="27px" height="16px" viewBox="0 0 27 16" version="1.1" xmlns="http://www.w3.org/2000/svg" xmlns:xlink="http://www.w3.org/1999/xlink">
    <!-- Generator: Sketch 46.2 (44496) - http://www.bohemiancoding.com/sketch -->
    <title>notice</title>
    <desc>Created with Sketch.</desc>
    <defs></defs>
    <g id="Symbols" stroke="none" stroke-width="1" fill="none" fill-rule="evenodd">
        <g id="Tool-Bars/假期" transform="translate(-302.000000, -8.000000)" fill="#CFD7D9">
            <g id="notice" transform="translate(302.000000, 8.000000)">
                <path d="M1.41153,9.89159245 C1.41153,10.2837434 1.09503,10.6004226 0.70563,10.6004226 C0.31683,10.6004226 3e-05,10.2837434 3e-05,9.89159245 L3e-05,5.91544151 C3e-05,5.52329057 0.31683,5.20570566 0.70593,5.20570566 C1.09503,5.20570566 1.41183,5.52329057 1.41183,5.91544151 L1.41183,9.89159245 L1.41153,9.89159245 Z" id="Fill-1"></path>
                <polygon id="Fill-6" points="1.8816 6.72003019 1.8816 6.05678491 17.094 0.94674717 17.094 14.8576906 1.8816 9.74916226"></polygon>
                <path d="M19.16571,15.0956075 C19.16571,15.4877585 18.84891,15.8062491 18.45861,15.8062491 C18.06861,15.8062491 17.75421,15.4874566 17.75421,15.0956075 L17.75421,0.710098113 C17.75421,0.318550943 18.06861,6.03773585e-05 18.45861,6.03773585e-05 C18.84921,6.03773585e-05 19.16571,0.318550943 19.16571,0.710098113 L19.16571,15.0956075 Z" id="Fill-3"></path>
                <path d="M3.81006,11.1495547 C3.31146,12.4434415 3.94776,13.8973283 5.23326,14.4017811 L7.92456,15.4508377 C9.20766,15.9534792 10.65426,15.3137811 11.15376,14.0195925 L10.35906,13.7107623 C10.03146,14.5590642 9.07746,14.9829132 8.23266,14.6523472 L5.54196,13.6005736 C4.69686,13.2721208 4.27716,12.3091019 4.60476,11.4608 L3.81006,11.1495547 Z" id="Fill-8"></path>
                <path d="M24.41952,2.55876226 C24.59982,2.74321509 24.60162,3.04329057 24.41952,3.22834717 L21.62352,6.03921509 C21.44052,6.2242717 21.14202,6.2242717 20.95842,6.03921509 C20.77572,5.85536604 20.77572,5.55559245 20.95842,5.36993208 L23.75172,2.55876226 C23.93472,2.37430943 24.23322,2.37430943 24.41952,2.55876226" id="Fill-10"></path>
                <path d="M24.41952,13.2474264 C24.23322,13.4309736 23.93742,13.4309736 23.75412,13.2474264 L20.95842,10.4362566 C20.77572,10.2521057 20.77572,9.9517283 20.95842,9.76787925 C21.14202,9.58282264 21.44022,9.58282264 21.62352,9.76787925 L24.41952,12.5784453 C24.60192,12.7622943 24.60192,13.0638792 24.41952,13.2474264" id="Fill-12"></path>
                <path d="M27,7.90309434 C27,8.16483019 26.7906,8.37645283 26.5314,8.37645283 L22.5795,8.37645283 C22.32,8.37645283 22.1106,8.1645283 22.1106,7.90309434 C22.1106,7.64135849 22.32,7.42943396 22.5795,7.42943396 L26.5314,7.42943396 C26.7906,7.42943396 27,7.64135849 27,7.90309434" id="Fill-14"></path>
            </g>
        </g>
    </g>
</svg>