<svg xmlns="http://www.w3.org/2000/svg" width="20" height="24" viewBox="0 0 20 24">
  <path fill="#3377DA" fill-rule="evenodd" d="M69.0769231,387.999625 L64.4615385,387.999625 C64.0369231,387.999625 63.6923077,387.663604 63.6923077,387.249578 C63.6923077,386.837052 64.0369231,386.499531 64.4615385,386.499531 L69.0769231,386.499531 C69.5015385,386.499531 69.8461538,386.837052 69.8461538,387.249578 C69.8461538,387.663604 69.5015385,387.999625 69.0769231,387.999625 Z M74.4615385,382.00075 C74.4615385,381.171198 73.7723077,380.499156 72.9230769,380.499156 L59.0769231,380.499156 C58.2261538,380.499156 57.5384615,381.171198 57.5384615,382.00075 L57.5384615,391.001313 C57.5384615,391.829364 58.2261538,392.499906 59.0769231,392.499906 L72.9230769,392.499906 C73.7723077,392.499906 74.4615385,391.829364 74.4615385,391.001313 L74.4615385,382.00075 Z M72.9230769,394 L59.0769231,394 C57.3784615,394 56,392.655916 56,391.001313 L56,382.00075 C56,380.343146 57.3784615,378.999062 59.0769231,378.999062 L59.0769231,376.750422 C59.0769231,373.024189 62.1769231,370 66,370 C69.5584615,370 72.4569231,372.629664 72.8461538,376.000375 L71.3076923,376.000375 C70.9307692,373.459216 68.7107692,371.500094 66,371.500094 C63.0261538,371.500094 60.6153846,373.850741 60.6153846,376.750422 L60.6153846,378.999062 L69.8461538,378.999062 L71.3846154,378.999062 L72.9230769,378.999062 L72.9230769,379.000563 C74.6215385,379.000563 76,380.343146 76,382.00075 L76,391.001313 C76,392.657416 74.6215385,394 72.9230769,394 Z" transform="translate(-56 -370)"/>
</svg>
