<?xml version="1.0" encoding="UTF-8" standalone="no"?>
<svg width="28px" height="38px" viewBox="0 0 28 38" version="1.1" xmlns="http://www.w3.org/2000/svg" xmlns:xlink="http://www.w3.org/1999/xlink">
    <!-- Generator: Sketch 46.2 (44496) - http://www.bohemiancoding.com/sketch -->
    <title>Page 1</title>
    <desc>Created with Sketch.</desc>
    <defs></defs>
    <g id="Page-1" stroke="none" stroke-width="1" fill="none" fill-rule="evenodd">
        <g id="mainpage-box" transform="translate(-218.000000, -280.000000)" fill="#3EA3F1">
            <g id="Page-1" transform="translate(218.000000, 280.000000)">
                <path d="M15.672017,3.80006032 L11.752017,3.80006032 L11.752017,3.64323492 C11.7818043,2.59974286 12.6396766,1.75529841 13.6703149,1.75529841 L13.7537191,1.75529841 C14.7843574,1.75529841 15.6422298,2.59974286 15.672017,3.64323492 L15.672017,3.80006032 Z M20.1222298,5.07275873 C20.0686128,4.89180635 19.9852085,4.71688571 19.8779745,4.56006032 C19.645634,4.21625079 19.2941447,3.96894921 18.8949957,3.86037778 C18.7460596,3.81815556 18.591166,3.80006032 18.4362723,3.80006032 L17.405634,3.80006032 L17.405634,3.64926667 C17.3818043,1.63466349 15.7435064,6.03174603e-05 13.7537191,6.03174603e-05 L13.7001021,6.03174603e-05 C12.6873362,6.03174603e-05 11.7758468,0.410219048 11.1086128,1.06767937 C10.4473362,1.73117143 10.0303149,2.64196508 10.0184,3.64926667 L10.0184,3.80006032 L8.9877617,3.80006032 C8.83286809,3.80006032 8.67797447,3.81815556 8.5290383,3.86037778 C8.12988936,3.96894921 7.7784,4.21625079 7.54605957,4.56006032 C7.43882553,4.71688571 7.35542128,4.89180635 7.30180426,5.07275873 C7.27201702,5.17529841 7.24818723,5.28990159 7.24222979,5.40450476 L7.24222979,7.45529841 C7.24818723,7.57593333 7.27201702,7.68450476 7.30180426,7.78704444 C7.51031489,8.52894921 8.16563404,9.04164762 8.92222979,9.07180635 L18.4892936,9.07180635 C19.2584,9.04164762 19.9137191,8.52894921 20.1222298,7.78704444 C20.152017,7.68450476 20.1758468,7.57593333 20.1818043,7.4673619 L20.1818043,5.39244127 C20.1758468,5.28990159 20.152017,5.18133016 20.1222298,5.07275873 L20.1222298,5.07275873 Z" id="Fill-1"></path>
                <path d="M27.4176,29.0047365 L27.4158128,28.664546 C27.4134298,27.8599111 27.4104511,27.0287365 27.4110468,26.2120381 C27.4116426,24.2993714 27.4110468,22.3861016 27.4104511,20.4734349 L27.4104511,19.4902603 C27.4098553,16.5220381 27.4086638,13.4530857 27.4134298,10.4420381 C27.4164085,8.19460952 26.4882383,6.54372063 24.6545362,5.5352127 C24.0236426,5.19019683 23.3123234,5.03457778 22.3478128,5.0315619 L21.8473872,5.03095873 L21.8473872,7.39540317 L21.9593872,7.39600635 C22.2763234,7.39902222 22.5473872,7.40746667 22.7880681,7.42314921 C24.0218553,7.50337143 25.0769191,8.56375238 25.1406638,9.78759365 C25.2014298,10.9800698 25.1996426,12.2316571 25.1972596,13.3360698 C25.1966638,13.5797524 25.1966638,13.8240381 25.1966638,14.0677206 C25.1996426,18.1892127 25.1996426,22.3107048 25.1996426,26.4315937 C25.1996426,29.306927 25.1996426,29.134419 25.2002383,32.0097524 C25.2002383,32.6641968 25.2002383,33.3409587 24.8916426,33.9248317 C24.3572596,34.9327365 23.5905362,35.4237206 22.5456,35.4237206 C21.1336851,35.4237206 19.7217702,35.4237206 18.3104511,35.4231175 L14.0747064,35.4225143 L13.7118979,35.4225143 L13.3490894,35.4225143 L9.11334468,35.4231175 C7.70202553,35.4237206 6.29011064,35.4237206 4.87819574,35.4237206 C3.83325957,35.4237206 3.06653617,34.9333397 2.53215319,33.9248317 C2.22355745,33.3409587 2.22355745,32.6641968 2.22355745,32.0097524 C2.22415319,29.134419 2.22415319,29.306927 2.22415319,26.4315937 C2.22415319,22.3107048 2.22415319,18.1898159 2.22713191,14.0677206 C2.22713191,13.8240381 2.22713191,13.5797524 2.22653617,13.3360698 C2.22415319,12.231054 2.22177021,10.9800698 2.28313191,9.78759365 C2.3468766,8.56375238 3.40253617,7.50276825 4.63572766,7.42314921 C4.87640851,7.40686349 5.14747234,7.39902222 5.46440851,7.39600635 L5.57640851,7.39540317 L5.57640851,5.03095873 L5.07598298,5.0315619 C4.1108766,5.03457778 3.40015319,5.19019683 2.76925957,5.5352127 C0.934961702,6.54311746 0.00738723404,8.19460952 0.0103659574,10.4420381 C0.0151319149,13.4524825 0.0139404255,16.5220381 0.0133446809,19.4902603 L0.0133446809,20.4734349 C0.0127489362,22.3861016 0.0115574468,24.2993714 0.0127489362,26.2120381 C0.0133446809,27.0287365 0.0103659574,27.8599111 0.00798297872,28.664546 L0.00619574468,29.0047365 C-0.00214468085,31.307054 -0.0104851064,30.6393397 0.0401531915,33.0007683 C0.0681531915,34.2614032 0.58347234,35.4568952 1.49198298,36.3670857 C2.40764255,37.2851175 3.60389787,37.7905778 4.86091915,37.7905778 L4.88057872,37.7905778 C7.55904681,37.7785143 10.1707915,37.7779111 12.8331745,37.7779111 L13.7118979,37.7779111 L14.591217,37.7779111 C17.2530043,37.7779111 19.8647489,37.7785143 22.5438128,37.7905778 L22.5640681,37.7905778 C23.8204936,37.7905778 25.0161532,37.2851175 25.9324085,36.3670857 C26.8409191,35.4562921 27.3562383,34.2608 27.3842383,33.0007683 C27.4336851,30.6393397 27.4253447,31.307054 27.4176,29.0047365" id="Fill-3"></path>
                <path d="M20.7759404,28.8403714 C21.1727064,29.2469111 21.5545787,29.6323397 21.9304936,30.0250063 C22.3749191,30.4870381 22.2337277,31.1692286 21.6534723,31.3809429 C21.3204511,31.502181 21.0481957,31.3857683 20.8051319,31.1541492 C20.4137277,30.780181 20.0199404,30.407419 19.6023234,30.0105302 C19.1978128,30.4243079 18.8183234,30.8121492 18.4376426,31.1987841 C18.2029191,31.4382444 17.9294723,31.5588794 17.5946638,31.4478952 C17.0215574,31.2591016 16.8505787,30.5889746 17.2676,30.1227206 C17.5541532,29.8030381 17.8609617,29.502054 18.1695574,29.2040857 C18.2595149,29.1166254 18.4501532,28.9429111 18.4358553,28.9284349 C17.9729617,28.4682127 17.6226638,28.1256095 17.2556851,27.7498317 C16.9030043,27.3903397 16.8910894,26.8897048 17.2157702,26.5664032 C17.5386638,26.2455143 17.9902383,26.2418952 18.357217,26.6025937 C18.7450468,26.9825937 19.0995149,27.3963714 19.4950894,27.8252286 C19.9824085,27.3324349 20.3684511,26.9198635 20.7777277,26.5326254 C21.2727915,26.0627524 21.9507489,26.2630063 22.1235149,26.9204667 C22.2063234,27.2383397 22.0633447,27.4868476 21.8542383,27.7033873 C21.5081106,28.0628794 21.1584085,28.4187524 20.8110894,28.7764349 C20.7944085,28.7927206 20.7884511,28.8168476 20.7759404,28.8403714" id="Fill-6"></path>
                <path d="M20.7759404,14.508219 C21.1727064,14.9147587 21.5545787,15.3007905 21.9304936,15.692854 C22.3749191,16.1554889 22.2337277,16.8376794 21.6534723,17.0487905 C21.3204511,17.1700286 21.0481957,17.0536159 20.8051319,16.8219968 C20.4137277,16.4480286 20.0199404,16.0752667 19.6023234,15.678981 C19.1978128,16.0921556 18.8183234,16.4799968 18.4376426,16.8666317 C18.2029191,17.1060921 17.9294723,17.226727 17.5946638,17.116346 C17.0215574,16.9269492 16.8505787,16.2574254 17.2676,15.7905683 C17.5541532,15.4708857 17.8609617,15.1699016 18.1695574,14.8719333 C18.2595149,14.784473 18.4501532,14.6107587 18.4358553,14.5968857 C17.9729617,14.1360603 17.6226638,13.7940603 17.2556851,13.4182825 C16.9030043,13.0581873 16.8910894,12.5575524 17.2157702,12.234854 C17.5386638,11.9139651 17.9902383,11.910346 18.357217,12.2704413 C18.7450468,12.6504413 19.0995149,13.0648222 19.4950894,13.4936794 C19.9824085,13.0002825 20.3684511,12.5883143 20.7777277,12.200473 C21.2727915,11.7306 21.9507489,11.930854 22.1235149,12.5889175 C22.2063234,12.9061873 22.0633447,13.1546952 21.8542383,13.3718381 C21.5081106,13.730727 21.1584085,14.0866 20.8110894,14.4442825 C20.7944085,14.4605683 20.7884511,14.4846952 20.7759404,14.508219" id="Fill-8"></path>
                <path d="M22.4316936,19.1665968 C22.4156085,19.1665968 22.3983319,19.1678032 22.3858213,19.1696127 C22.3119489,19.1780571 22.2523745,19.2070095 22.2088851,19.2299302 L22.0253957,19.3282476 C21.9145872,19.3891683 21.7835234,19.4627556 21.6518638,19.5502159 C20.7785021,20.1377079 19.948034,20.8030095 19.1449702,21.4465968 L19.0961191,21.4858032 C18.9025021,21.640819 18.7070979,21.8000571 18.5182468,21.9556762 L18.4038638,22.0485651 L18.1965447,21.8730413 C17.9642043,21.6764063 17.7026723,21.4538349 17.435183,21.2421206 C17.2737362,21.1142476 17.0914383,21.0279937 16.9341617,20.9598349 C16.7667574,20.8892635 16.5916085,20.9242476 16.4939064,21.0472952 C16.4206298,21.1383746 16.3968,21.2650413 16.4265872,21.4037714 C16.4486298,21.5045016 16.4766298,21.623327 16.5230979,21.7385333 C16.7762894,22.3634222 17.1301617,22.9931365 17.6341617,23.7211683 C17.8069277,23.9696762 18.0708426,24.1126286 18.3568,24.1126286 C18.5939064,24.1126286 18.8226723,24.0143111 19.0019915,23.8357714 C19.1598638,23.6795492 19.3219064,23.5142794 19.4851404,23.3447873 C20.0147574,22.7898667 20.6307574,22.1420571 21.2181617,21.471327 C21.3909277,21.2752952 21.5613106,21.077454 21.7322894,20.8796127 C21.859183,20.7330413 21.9854809,20.5864698 22.1129702,20.4405016 L22.1427574,20.407327 C22.5764596,19.9223746 22.7718638,19.6014857 22.7569702,19.3964063 C22.750417,19.3101524 22.6997787,19.1665968 22.4316936,19.1665968" id="Fill-10"></path>
                <polygon id="Fill-12" points="5.03642553 15.4551429 14.8364255 15.4551429 14.8364255 13.645619 5.03642553 13.645619"></polygon>
                <polygon id="Fill-14" points="5.03642553 22.544254 14.8364255 22.544254 14.8364255 20.7347302 5.03642553 20.7347302"></polygon>
                <polygon id="Fill-15" points="5.03642553 29.7871746 14.8364255 29.7871746 14.8364255 27.9776508 5.03642553 27.9776508"></polygon>
            </g>
        </g>
    </g>
</svg>