<svg xmlns="http://www.w3.org/2000/svg" width="18" height="22" viewBox="0 0 18 22">
  <path fill="#3377DA" fill-rule="evenodd" d="M70.25,307.60044 C70.25,304.765184 67.8995,302.466764 65,302.466764 C62.1005,302.466764 59.75,304.765184 59.75,307.60044 C59.75,310.435696 62.1005,312.734116 65,312.734116 C67.8995,312.734116 70.25,310.435696 70.25,307.60044 Z M72.5,321.534702 C72.5,317.483499 69.1415,314.20088 65,314.20088 C60.857,314.20088 57.5,317.483499 57.5,321.534702 L57.5,323 L56,323 L56,321.534702 C56,317.814988 58.3625,314.640909 61.697,313.354557 C59.6405,312.223682 58.25,310.071938 58.25,307.60044 C58.25,303.95553 61.2725,301 65,301 C68.7275,301 71.75,303.95553 71.75,307.60044 C71.75,310.071938 70.358,312.222215 68.3015,313.354557 C71.6375,314.640909 74,317.814988 74,321.534702 L74,323 L72.5,323 L72.5,321.534702 Z" transform="translate(-56 -301)"/>
</svg>
